<svg xmlns="http://www.w3.org/2000/svg" xmlns:xlink="http://www.w3.org/1999/xlink" width="320" height="320"><defs><g id="a"><path fill="#66aeed" d="m64 40 32 60 32-60z"/><path fill="#54a4eb" d="m32 100 32-60 32 60z"/><path fill="#429be9" d="m32 100 32 60 32-60z"/><path fill="#2b8fe7" d="m0 160 32-60 32 60z"/><path fill="#1e88e5" d="m0 160 32 60 32-60z"/><path fill="#2055a8" d="m32 220 32-60 32 60z"/><path fill="#0d47a1" d="m32 220 32 60 32-60z"/><path fill="#f52757" d="m64 280 32-60 32 60z"/><path fill="#f75279" d="m96 220 32 60 32-60z"/><path fill="#f8688a" d="m96 220 32-60 32 60z"/></g></defs><use xlink:href="#a"/><use transform="rotate(180 160 160)" xlink:href="#a"/><path fill="#f87292" d="m128 160 32 60 32-60z"/><path fill="#f97d9a" d="m128 160 32-60 32 60z"/></svg>