<svg xmlns="http://www.w3.org/2000/svg" width="320" height="320"><defs><mask id="a"><path fill="#fff" d="M0 0h320v320H0z"/><path d="M30 65 0 80v160l30 15z" transform="matrix(.5 0 0 .5 100 80)"/><path d="m30 65 290 215-80 40L0 80z" transform="matrix(.5 0 0 .5 100 80)"/><path d="M30 255 320 40 240 0 0 240z" transform="matrix(.5 0 0 .5 100 80)"/><path d="m240 0 80 40v240l-80 40z" transform="matrix(.5 0 0 .5 100 80)"/></mask></defs><path fill="#bfbfbf" mask="url(#a)" d="M40 60h280v200H40z"/><path fill="none" stroke="#bfbfbf" stroke-width="20" d="m150 70 40-40h120v40"/></svg>