<svg xmlns="http://www.w3.org/2000/svg" xmlns:xlink="http://www.w3.org/1999/xlink" width="320" height="320"><defs><g id="a" fill="#3f3f3f"><path d="m64 40 32 60 32-60z"/><path d="m32 100 32-60 32 60zm0 0 32 60 32-60z"/><path d="m0 160 32-60 32 60zm0 0 32 60 32-60zm32 60 32-60 32 60zm0 0 32 60 32-60zm32 60 32-60 32 60z"/><path d="m96 220 32 60 32-60zm0 0 32-60 32 60z"/></g></defs><use xlink:href="#a"/><use transform="rotate(180 160 160)" xlink:href="#a"/><path fill="#3f3f3f" d="m128 160 32 60 32-60zm0 0 32-60 32 60z"/></svg>